<?xml version="1.0" standalone="no"?>
<!DOCTYPE svg PUBLIC "-//W3C//DTD SVG 20010904//EN"
 "http://www.w3.org/TR/2001/REC-SVG-20010904/DTD/svg10.dtd">
<svg version="1.0" xmlns="http://www.w3.org/2000/svg"
 width="900.000000pt" height="900.000000pt" viewBox="0 0 900.000000 900.000000"
 preserveAspectRatio="xMidYMid meet">
<metadata>
Created by potrace 1.11, written by Peter Selinger 2001-2013
</metadata>
<g transform="translate(0.000000,900.000000) scale(0.100000,-0.100000)"
fill="#000000" stroke="none">
<path d="M2820 8149 c-85 -13 -113 -20 -131 -30 -11 -5 -19 -7 -19 -4 0 9
-115 -46 -168 -81 -91 -60 -142 -109 -207 -199 -46 -65 -109 -175 -99 -175 4
0 2 -6 -4 -12 -12 -15 -63 -165 -65 -190 -1 -10 -4 -18 -7 -18 -3 0 -6 -8 -6
-17 -1 -19 -11 -82 -19 -123 -26 -121 -26 -579 0 -719 1 -9 6 -43 10 -76 4
-32 8 -66 10 -75 1 -8 6 -37 9 -64 4 -27 9 -53 11 -57 3 -3 7 -28 10 -55 4
-26 8 -51 10 -54 2 -4 7 -21 10 -39 3 -17 12 -60 21 -94 27 -113 29 -103 -24
-117 -26 -6 -49 -12 -52 -12 -3 -1 -20 -7 -37 -15 -18 -7 -33 -10 -33 -7 0 4
-6 1 -13 -5 -8 -6 -17 -8 -20 -4 -4 3 -7 0 -7 -7 0 -7 -3 -10 -7 -7 -3 4 -12
2 -20 -4 -7 -6 -13 -9 -13 -6 0 4 -30 -5 -67 -19 -87 -32 -93 -34 -96 -32 -1
0 -22 -9 -47 -22 -25 -13 -45 -22 -45 -21 0 8 -65 -21 -245 -108 -156 -76
-215 -109 -313 -177 -43 -30 -82 -54 -87 -54 -5 0 -10 -3 -12 -7 -1 -5 -40
-39 -85 -76 -137 -113 -253 -255 -320 -392 -26 -52 -50 -120 -42 -120 1 0 -2
-9 -8 -20 -33 -61 -35 -282 -4 -383 5 -18 11 -36 12 -40 2 -10 14 -41 32 -85
9 -20 16 -40 16 -44 -1 -3 3 -9 8 -12 4 -3 17 -22 27 -41 34 -62 108 -153 193
-237 46 -46 83 -81 83 -79 0 3 15 -8 33 -25 67 -61 244 -175 412 -264 130 -69
461 -204 600 -245 22 -6 49 -15 60 -20 11 -4 48 -16 83 -26 52 -14 61 -20 57
-36 -10 -36 -14 -53 -19 -78 -2 -14 -11 -57 -20 -95 -25 -117 -29 -139 -41
-210 -3 -16 -7 -39 -9 -50 -2 -11 -7 -47 -10 -80 -4 -33 -9 -71 -11 -85 -27
-182 -27 -592 1 -723 3 -12 7 -42 10 -66 2 -24 8 -49 11 -55 4 -6 9 -20 10
-31 6 -42 49 -165 86 -245 49 -107 204 -290 282 -333 83 -45 191 -93 202 -89
2 0 17 -4 35 -9 97 -30 296 -29 436 2 71 16 237 71 243 81 3 5 10 9 15 9 11
-1 97 31 104 38 8 9 99 52 106 51 4 -1 10 2 13 8 3 5 40 28 81 52 67 38 267
172 309 206 9 7 36 29 61 48 63 50 108 87 137 114 13 12 26 22 29 22 2 0 12 8
22 18 67 65 205 187 212 187 4 0 47 -35 94 -78 96 -89 113 -104 175 -155 24
-21 49 -42 55 -47 6 -6 31 -26 56 -45 25 -19 47 -37 50 -40 10 -11 178 -128
245 -172 149 -96 343 -196 440 -228 22 -7 45 -16 50 -20 11 -7 127 -41 160
-46 11 -2 31 -6 45 -9 101 -23 292 -24 388 0 12 3 30 7 40 9 30 7 117 43 158
66 62 35 95 60 157 120 58 54 157 192 157 217 0 7 4 13 9 13 9 0 21 25 21 43
0 4 7 21 15 38 16 30 51 132 60 173 2 12 7 32 10 46 3 14 8 41 11 60 3 19 7
40 9 47 20 60 27 440 11 613 -11 127 -23 225 -26 225 -1 0 -3 14 -5 30 -2 17
-6 44 -9 60 -3 17 -7 46 -10 65 -7 41 -7 41 -41 195 -15 66 -28 127 -28 135
-2 11 25 24 88 44 136 43 386 133 473 170 84 36 234 108 242 116 3 3 10 6 16
7 12 2 237 133 244 143 3 4 20 15 38 25 17 11 32 23 32 27 0 4 5 8 11 8 6 0
16 6 24 13 7 6 32 28 56 47 54 42 175 164 209 209 14 18 30 38 35 44 37 44
121 202 130 245 2 12 6 26 9 30 5 9 13 43 24 112 7 39 8 205 2 205 -2 0 -4 9
-6 20 -36 234 -195 458 -481 678 -34 26 -66 47 -71 47 -6 0 -12 3 -14 8 -3 7
-64 52 -72 52 -2 0 -33 17 -67 38 -90 55 -294 153 -429 206 -70 28 -81 33
-140 54 -30 11 -73 27 -95 35 -22 8 -42 15 -45 15 -3 1 -12 3 -20 6 -53 18
-140 44 -167 50 -26 6 -31 11 -27 29 3 12 7 33 9 47 2 14 8 37 14 53 6 15 9
27 6 27 -2 0 0 14 5 32 5 17 12 49 16 72 3 22 7 43 9 46 2 3 6 24 9 46 4 22 8
51 11 64 7 34 17 100 20 130 4 35 15 128 21 175 12 95 11 445 -1 545 -7 58
-11 107 -9 109 2 2 0 9 -5 15 -4 6 -11 29 -15 51 -15 88 -19 101 -38 155 -59
167 -124 277 -219 377 -102 106 -223 175 -364 208 -54 13 -99 17 -195 18 -122
1 -193 -9 -315 -45 -38 -11 -80 -22 -93 -25 -12 -3 -25 -9 -28 -14 -3 -5 -12
-9 -20 -9 -20 0 -227 -98 -307 -146 -64 -38 -184 -113 -202 -126 -5 -4 -57
-42 -115 -85 -58 -42 -110 -81 -117 -87 -7 -6 -18 -16 -25 -21 -39 -32 -143
-119 -153 -128 -51 -50 -190 -172 -196 -172 -4 0 -47 37 -95 82 -93 85 -101
92 -180 158 -26 22 -57 48 -68 58 -231 197 -621 426 -851 499 -53 17 -139 40
-160 43 -11 1 -37 6 -57 10 -51 10 -214 12 -268 4z m306 -355 c90 -23 121 -34
191 -65 24 -11 47 -19 53 -19 5 0 10 -4 10 -10 0 -5 6 -7 13 -4 8 3 20 -2 27
-11 7 -8 16 -15 21 -15 31 0 392 -239 464 -307 7 -7 15 -9 19 -6 3 4 6 2 6 -4
0 -6 33 -37 73 -70 77 -65 97 -83 195 -175 43 -40 60 -63 55 -72 -5 -8 -33
-41 -63 -74 -78 -84 -164 -185 -300 -352 -52 -64 -230 -300 -230 -305 0 -5
-13 -22 -55 -72 -17 -20 -31 -24 -100 -28 -44 -2 -80 -5 -80 -5 0 -3 -34 -8
-91 -14 -32 -4 -73 -9 -90 -12 -17 -3 -46 -7 -65 -9 -19 -2 -50 -7 -69 -10
-19 -3 -48 -7 -65 -9 -34 -5 -78 -12 -150 -26 -50 -10 -113 -21 -150 -26 -11
-1 -20 -3 -20 -4 0 -2 -14 -5 -60 -13 -16 -3 -39 -8 -50 -11 -85 -21 -80 -23
-94 36 -20 84 -43 190 -48 223 -2 17 -10 64 -18 106 -8 42 -17 102 -20 133 -4
31 -8 67 -11 79 -8 39 -18 219 -18 322 0 285 51 507 149 654 46 70 132 151
160 151 7 0 15 4 17 8 2 5 30 16 63 25 85 22 224 19 331 -9z m3069 11 c32 -9
65 -21 72 -27 7 -6 13 -7 13 -4 0 21 130 -96 163 -146 34 -54 65 -114 69 -133
1 -11 6 -22 10 -25 4 -3 9 -17 12 -30 3 -14 15 -65 26 -115 23 -105 34 -218
34 -365 0 -101 -10 -272 -19 -321 -2 -13 -6 -40 -9 -59 -2 -19 -7 -60 -12 -90
-4 -30 -8 -63 -8 -72 0 -10 -3 -18 -7 -18 -4 0 -6 -8 -5 -17 2 -10 -1 -31 -5
-48 -7 -26 -13 -57 -23 -115 -2 -12 -15 -67 -21 -90 -1 -3 -5 -22 -9 -43 -8
-37 -9 -37 -45 -31 -20 3 -43 8 -51 11 -8 3 -22 7 -30 8 -8 1 -69 12 -135 25
-140 26 -147 28 -200 35 -48 7 -80 13 -80 15 0 1 -16 3 -35 5 -48 5 -119 15
-155 21 -16 2 -52 7 -80 9 -27 3 -66 8 -85 11 -19 3 -64 7 -100 10 -68 4 -74
8 -125 79 -36 51 -208 280 -219 291 -28 30 -46 55 -46 64 0 6 -4 10 -8 10 -4
0 -24 22 -45 48 -20 27 -47 60 -59 74 -13 13 -48 54 -78 89 -30 35 -75 86
-100 112 -25 27 -48 55 -52 62 -5 9 16 36 64 82 101 96 97 93 163 148 33 28
62 52 65 55 37 40 361 270 380 270 6 0 13 7 16 15 4 8 9 13 13 11 4 -3 20 4
37 15 73 50 311 151 379 161 11 2 25 6 30 9 6 3 26 6 45 8 19 2 37 5 39 7 11
10 163 2 216 -11z m-1682 -1018 c7 -7 32 -35 57 -63 175 -195 399 -473 383
-475 -4 -1 -53 0 -108 1 -130 4 -562 4 -690 1 -55 -2 -104 -2 -108 -2 -7 1 32
59 60 89 7 7 27 33 44 57 18 25 36 45 41 45 4 0 8 5 8 11 0 6 6 16 13 23 6 7
30 34 52 61 41 50 91 107 135 156 14 15 40 45 59 68 39 46 38 46 54 28z m-91
-871 c22 -1 41 1 43 5 3 3 22 3 42 -1 48 -8 51 -8 91 1 17 4 32 3 32 -1 0 -6
65 -6 95 0 6 1 12 1 15 0 3 -1 37 -4 75 -5 139 -6 300 -14 300 -15 0 -1 24 -3
53 -5 30 -2 55 -5 57 -7 15 -16 263 -407 291 -458 10 -19 22 -37 25 -40 6 -5
121 -207 183 -320 20 -36 77 -147 128 -247 l93 -182 -17 -33 c-9 -18 -19 -40
-22 -48 -3 -8 -30 -60 -59 -115 -29 -55 -70 -134 -92 -175 -21 -41 -47 -87
-56 -101 -10 -14 -16 -28 -13 -31 2 -3 -2 -11 -11 -18 -8 -7 -15 -16 -15 -21
0 -8 -189 -328 -245 -414 -141 -217 -189 -291 -191 -294 -2 -2 -31 -4 -64 -5
-33 -1 -60 -3 -60 -6 0 -14 -891 -18 -1110 -5 -69 4 -141 8 -160 9 -19 1 -41
5 -48 10 -7 4 -47 60 -89 124 -41 65 -86 133 -99 152 -46 70 -195 316 -204
338 -6 13 -28 54 -49 90 -55 93 -118 212 -208 390 l-77 153 79 157 c99 197
246 466 257 470 4 2 8 8 8 14 0 12 82 152 92 156 5 2 8 8 8 13 0 6 32 60 70
120 39 61 70 114 70 119 0 5 3 10 8 12 4 2 23 28 42 58 19 30 37 57 40 60 4 3
15 20 25 38 11 17 24 33 30 33 57 8 279 19 433 23 73 2 135 6 139 9 3 4 10 4
16 0 5 -3 28 -7 49 -7z m-1082 -71 c0 -12 -25 -55 -32 -55 -4 0 -8 -4 -8 -9 0
-12 -63 -115 -72 -119 -5 -2 -8 -8 -8 -14 0 -5 -8 -22 -19 -36 -10 -15 -27
-43 -38 -62 -11 -19 -45 -79 -76 -133 -32 -54 -57 -102 -57 -107 0 -4 -3 -10
-7 -12 -5 -1 -23 -32 -42 -68 -57 -109 -103 -191 -106 -188 -3 5 -117 292
-120 303 -1 6 -5 17 -8 25 -23 53 -85 240 -80 240 3 0 1 6 -4 13 -12 16 -38
96 -32 101 2 2 60 15 129 29 126 26 154 31 224 42 21 4 48 8 59 11 12 2 39 6
62 9 22 3 51 8 65 10 14 3 47 7 75 11 27 3 51 6 52 7 4 5 43 6 43 2z m2425
-10 c22 -3 51 -7 65 -10 14 -2 43 -7 65 -10 23 -3 52 -8 65 -11 14 -3 43 -7
65 -10 33 -4 95 -16 205 -39 8 -2 43 -8 78 -15 34 -7 62 -15 62 -19 0 -3 -4
-22 -10 -41 -5 -19 -10 -38 -10 -43 0 -4 -7 -21 -15 -37 -8 -16 -15 -33 -15
-37 1 -9 -37 -117 -53 -153 -6 -14 -12 -29 -13 -35 0 -5 -5 -19 -9 -30 -5 -11
-17 -42 -27 -70 -10 -27 -23 -59 -27 -70 -11 -25 -24 -58 -25 -65 -3 -18 -40
-90 -46 -90 -5 0 -22 28 -39 63 -18 34 -52 98 -77 142 -24 44 -52 96 -62 115
-9 19 -20 37 -24 38 -5 2 -8 10 -8 18 0 8 -4 14 -10 14 -5 0 -10 5 -10 11 0
10 -157 276 -170 289 -3 3 -11 15 -17 28 -7 12 -19 32 -25 45 -7 12 -17 25
-23 29 -9 7 19 5 110 -7z m-3461 -207 c2 -7 7 -21 10 -31 3 -9 6 -21 7 -25 1
-7 46 -135 56 -162 3 -8 7 -20 8 -27 13 -60 235 -609 288 -713 12 -22 9 -35
-31 -125 -46 -105 -121 -285 -154 -370 -51 -134 -80 -212 -83 -229 -2 -10 -9
-24 -15 -32 -7 -7 -9 -18 -5 -24 3 -5 1 -10 -4 -10 -6 0 -10 -3 -9 -7 0 -5 -1
-15 -4 -23 -3 -8 -15 -46 -28 -85 -12 -38 -24 -77 -28 -85 -3 -8 -6 -18 -6
-22 -2 -17 -17 -17 -72 2 -32 11 -59 20 -59 19 0 -1 -31 8 -70 21 -38 14 -73
25 -77 26 -5 1 -9 2 -10 4 -2 1 -10 3 -19 5 -9 1 -32 10 -50 18 -19 8 -54 22
-79 32 -41 15 -58 22 -145 60 -60 27 -150 70 -155 75 -3 3 -11 6 -19 8 -17 4
-165 90 -246 145 -94 63 -275 224 -275 245 0 3 -9 15 -19 26 -29 32 -77 125
-94 184 -22 73 -17 191 12 265 59 152 244 343 449 464 80 47 146 83 154 83 4
0 8 5 8 10 0 6 3 9 8 8 4 -1 43 16 87 36 133 63 275 123 305 131 8 2 59 19
113 39 53 19 97 34 97 32 0 -1 30 8 68 20 80 27 82 27 86 12z m4499 -17 c205
-56 594 -219 766 -323 34 -21 65 -38 67 -38 3 0 10 -5 17 -10 7 -6 50 -38 96
-72 267 -196 389 -417 341 -619 -7 -30 -12 -56 -11 -58 2 -2 -1 -7 -6 -10 -4
-3 -21 -31 -36 -61 -54 -110 -191 -248 -342 -346 -33 -21 -62 -42 -65 -45 -3
-4 -25 -17 -50 -29 -25 -12 -47 -25 -50 -29 -4 -5 -42 -24 -250 -126 -30 -15
-57 -27 -60 -27 -9 -1 -40 -13 -165 -63 -11 -5 -24 -7 -29 -6 -4 1 -13 -2 -20
-7 -11 -9 -164 -62 -189 -66 -7 -1 -16 -4 -22 -7 -9 -6 -54 -19 -83 -25 -13
-2 -20 9 -26 38 -2 7 -6 20 -9 28 -3 8 -20 60 -38 115 -18 55 -35 105 -38 110
-3 6 -6 15 -7 20 -4 19 -111 300 -132 346 -12 25 -30 68 -41 95 -10 27 -27 67
-37 89 -10 22 -17 43 -16 48 1 4 -3 7 -8 7 -6 0 -10 7 -10 15 0 8 -8 29 -19
48 -16 29 -17 37 -5 58 7 13 13 32 14 42 0 9 5 17 10 17 6 0 10 7 10 15 0 9 8
30 17 48 9 18 18 37 19 42 2 9 28 72 88 209 11 27 21 52 22 55 0 3 6 20 13 36
6 17 23 59 36 95 13 36 30 79 36 95 7 17 13 35 14 40 2 8 68 208 90 272 4 11
13 10 108 -16z m-3885 -1439 c44 -88 96 -186 102 -192 5 -5 26 -41 57 -100 10
-19 20 -37 23 -40 5 -5 11 -15 58 -99 14 -25 40 -69 59 -98 18 -29 33 -57 33
-63 0 -5 5 -10 10 -10 6 0 10 -6 10 -14 0 -8 4 -16 8 -18 8 -3 62 -92 62 -102
0 -6 -19 -4 -90 9 -14 2 -43 7 -65 10 -37 4 -78 11 -138 20 -12 2 -40 7 -62
10 -22 4 -94 17 -160 31 -66 13 -131 26 -145 28 -14 3 -27 5 -30 6 -3 2 -8 2
-12 1 -5 0 -8 2 -8 6 0 13 20 86 29 108 5 11 21 56 36 100 38 111 88 247 123
332 16 40 27 75 24 78 -3 3 0 5 6 5 6 0 13 14 17 30 4 17 10 30 13 30 4 0 22
-31 40 -68z m3237 -6 c30 -67 177 -463 189 -511 2 -5 8 -30 15 -54 7 -23 11
-44 9 -45 -2 -2 -100 -23 -198 -42 -14 -2 -59 -12 -100 -20 -41 -8 -91 -17
-110 -18 -19 -2 -46 -6 -60 -9 -14 -4 -45 -9 -70 -12 -68 -8 -112 -14 -142
-21 -34 -7 -35 3 -5 47 53 80 117 188 117 198 0 6 4 11 9 11 5 0 19 19 30 43
12 23 27 51 34 62 10 17 70 123 142 250 13 22 24 45 25 50 2 6 14 27 26 47 13
21 24 41 24 46 0 4 8 18 17 31 l16 24 9 -23 c5 -12 15 -37 23 -54z m-3555
-947 c60 -14 79 -18 115 -24 17 -3 50 -10 75 -15 63 -14 299 -52 405 -66 22
-3 51 -8 65 -10 14 -3 43 -7 65 -9 22 -2 67 -7 100 -10 103 -11 129 -13 147
-14 9 -1 74 -79 149 -178 73 -98 138 -184 144 -191 5 -7 15 -18 20 -25 6 -7
30 -37 55 -67 25 -30 47 -57 50 -60 3 -3 16 -18 29 -35 12 -16 37 -46 54 -65
18 -19 61 -69 97 -110 36 -41 71 -79 77 -83 7 -4 13 -12 13 -16 0 -8 -88 -97
-140 -141 -14 -12 -41 -35 -60 -53 -20 -18 -55 -48 -79 -67 -24 -19 -48 -40
-55 -46 -40 -38 -289 -215 -351 -250 -11 -6 -44 -25 -72 -42 -29 -17 -53 -28
-53 -24 0 4 -4 2 -8 -4 -14 -20 -277 -130 -265 -111 5 9 3 9 -8 1 -8 -6 -27
-15 -44 -19 -16 -4 -39 -9 -50 -12 -52 -12 -219 -10 -273 4 -258 66 -396 362
-395 843 0 193 10 298 59 595 3 17 7 41 9 55 2 14 4 25 5 25 1 0 4 14 6 30 3
17 12 57 21 90 18 70 21 86 22 103 1 15 12 15 71 1z m3884 -61 c9 -40 19 -82
22 -93 3 -11 7 -33 9 -50 1 -16 4 -30 5 -30 1 0 3 -11 6 -25 2 -14 9 -50 15
-80 6 -30 12 -66 13 -80 5 -44 18 -134 22 -160 8 -49 18 -227 17 -330 0 -247
-34 -433 -105 -579 -13 -25 -27 -49 -33 -53 -5 -4 -7 -8 -3 -8 16 0 -73 -96
-124 -134 -21 -15 -68 -38 -105 -51 -57 -19 -85 -22 -173 -20 -58 2 -116 6
-130 10 -14 4 -34 8 -45 10 -11 2 -20 4 -20 5 0 1 -7 3 -15 5 -86 18 -313 122
-408 186 -24 16 -45 29 -48 29 -7 0 -68 44 -76 55 -5 7 -8 7 -8 0 0 -7 -3 -7
-8 0 -4 6 -43 37 -87 69 -124 92 -250 196 -335 276 -14 14 -42 39 -61 56 -63
56 -73 71 -58 87 8 8 41 44 74 82 33 37 65 73 70 79 6 6 57 67 114 136 139
168 129 157 185 230 27 36 53 67 58 68 4 2 8 7 8 12 0 5 29 47 64 93 35 47 68
92 73 101 7 12 28 17 84 20 41 3 85 7 99 10 25 5 89 14 170 22 65 7 79 9 86
16 3 4 12 4 19 1 8 -2 38 0 67 6 29 5 69 13 88 15 19 3 46 8 60 11 14 2 42 6
62 9 21 2 41 7 45 9 7 5 34 10 118 23 17 2 55 11 85 18 88 23 85 24 104 -56z
m-1964 -129 c190 0 366 2 393 4 26 2 47 2 47 -1 0 -7 -191 -248 -235 -296 -6
-6 -28 -33 -50 -61 -22 -27 -56 -66 -75 -87 -19 -20 -50 -53 -68 -73 l-34 -36
-20 23 c-11 13 -38 44 -61 69 -23 25 -51 57 -62 70 -11 13 -47 56 -80 95 -33
39 -73 88 -90 109 -16 21 -34 43 -40 49 -19 21 -105 134 -105 138 0 2 30 2 68
0 37 -1 222 -3 412 -3z"/>
<path d="M4418 5344 c-2 -1 -19 -5 -38 -8 -19 -4 -39 -8 -45 -10 -5 -1 -25 -6
-44 -10 -31 -8 -120 -50 -180 -86 -50 -30 -110 -86 -163 -151 -37 -46 -107
-169 -115 -204 -2 -11 -5 -24 -6 -30 -2 -5 -5 -14 -9 -20 -18 -30 -27 -212
-14 -295 14 -93 70 -231 120 -299 36 -48 170 -171 218 -199 58 -34 167 -76
228 -87 90 -16 257 -7 335 20 6 1 21 6 35 11 56 17 164 83 229 139 39 33 70
64 70 69 1 6 12 21 25 35 52 56 110 193 134 316 9 48 8 165 -3 220 -4 22 -9
48 -10 57 0 10 -4 21 -8 24 -4 4 -7 14 -7 23 0 21 -80 181 -91 181 -5 0 -9 6
-9 13 0 29 -188 197 -221 197 -5 0 -9 5 -9 10 0 6 -3 9 -7 8 -5 -1 -30 9 -58
21 -79 35 -159 52 -261 55 -52 2 -95 2 -96 0z"/>
</g>
</svg>
